<?xml version="1.0" encoding="UTF-8"?>
<!DOCTYPE svg PUBLIC "-//W3C//DTD SVG 1.1//EN" "http://www.w3.org/Graphics/SVG/1.1/DTD/svg11.dtd">
<svg xmlns="http://www.w3.org/2000/svg" xmlns:xlink="http://www.w3.org/1999/xlink" version="1.1" width="571px" height="202px" viewBox="-0.5 -0.5 571 202"><defs><clipPath id="mx-clip-85-160-61-40-0"><rect x="85" y="160" width="61" height="40"/></clipPath><clipPath id="mx-clip-146-160-60-40-0"><rect x="146" y="160" width="60" height="40"/></clipPath><clipPath id="mx-clip-206-160-61-40-0"><rect x="206" y="160" width="61" height="40"/></clipPath><clipPath id="mx-clip-267-160-58-40-0"><rect x="267" y="160" width="58" height="40"/></clipPath><clipPath id="mx-clip-325-160-58-40-0"><rect x="325" y="160" width="58" height="40"/></clipPath><clipPath id="mx-clip-383-160-61-40-0"><rect x="383" y="160" width="61" height="40"/></clipPath><clipPath id="mx-clip-444-160-60-40-0"><rect x="444" y="160" width="60" height="40"/></clipPath><clipPath id="mx-clip-504-160-61-40-0"><rect x="504" y="160" width="61" height="40"/></clipPath></defs><g><rect x="0" y="0" width="570" height="200" fill="none" stroke="none" pointer-events="all"/><rect x="85" y="160" width="480" height="40" fill="rgb(255, 255, 255)" stroke="none" pointer-events="none"/><path d="M 85 160 M 565 160 M 565 200 M 85 200" fill="none" stroke="rgb(0, 0, 0)" stroke-width="2" stroke-linecap="square" stroke-miterlimit="10" pointer-events="none"/><path d="M 85 160 M 146 160 M 146 200 M 85 200" fill="none" stroke="rgb(0, 0, 0)" stroke-width="2" stroke-linecap="square" stroke-miterlimit="10" pointer-events="none"/><g fill="rgb(0, 0, 0)" font-family="Helvetica" pointer-events="none" clip-path="url(#mx-clip-85-160-61-40-0)" text-anchor="middle" font-size="15px"><text x="115" y="186">0</text></g><path d="M 146 160 M 206 160 M 206 200 M 146 200" fill="none" stroke="rgb(0, 0, 0)" stroke-width="2" stroke-linecap="square" stroke-miterlimit="10" pointer-events="none"/><g fill="rgb(0, 0, 0)" font-family="Helvetica" pointer-events="none" clip-path="url(#mx-clip-146-160-60-40-0)" text-anchor="middle" font-size="15px"><text x="175.5" y="186">1</text></g><path d="M 206 160 M 267 160 M 267 200 M 206 200" fill="none" stroke="rgb(0, 0, 0)" stroke-width="2" stroke-linecap="square" stroke-miterlimit="10" pointer-events="none"/><g fill="rgb(0, 0, 0)" font-family="Helvetica" pointer-events="none" clip-path="url(#mx-clip-206-160-61-40-0)" text-anchor="middle" font-size="15px"><text x="236" y="186">2</text></g><path d="M 267 160 M 325 160 M 325 200 M 267 200" fill="none" stroke="rgb(0, 0, 0)" stroke-width="2" stroke-linecap="square" stroke-miterlimit="10" pointer-events="none"/><g fill="rgb(0, 0, 0)" font-family="Helvetica" pointer-events="none" clip-path="url(#mx-clip-267-160-58-40-0)" text-anchor="middle" font-size="15px"><text x="295.5" y="186">3</text></g><path d="M 325 160 M 383 160 M 383 200 M 325 200" fill="none" stroke="rgb(0, 0, 0)" stroke-width="2" stroke-linecap="square" stroke-miterlimit="10" pointer-events="none"/><g fill="rgb(0, 0, 0)" font-family="Helvetica" pointer-events="none" clip-path="url(#mx-clip-325-160-58-40-0)" text-anchor="middle" font-size="15px"><text x="353.5" y="186">4</text></g><path d="M 383 160 M 444 160 M 444 200 M 383 200" fill="none" stroke="rgb(0, 0, 0)" stroke-width="2" stroke-linecap="square" stroke-miterlimit="10" pointer-events="none"/><g fill="rgb(0, 0, 0)" font-family="Helvetica" pointer-events="none" clip-path="url(#mx-clip-383-160-61-40-0)" text-anchor="middle" font-size="15px"><text x="413" y="186">5</text></g><path d="M 444 160 M 504 160 M 504 200 M 444 200" fill="none" stroke="rgb(0, 0, 0)" stroke-width="2" stroke-linecap="square" stroke-miterlimit="10" pointer-events="none"/><g fill="rgb(0, 0, 0)" font-family="Helvetica" pointer-events="none" clip-path="url(#mx-clip-444-160-60-40-0)" text-anchor="middle" font-size="15px"><text x="473.5" y="186">6</text></g><path d="M 504 160 M 565 160 M 565 200 M 504 200" fill="none" stroke="rgb(0, 0, 0)" stroke-width="2" stroke-linecap="square" stroke-miterlimit="10" pointer-events="none"/><g fill="rgb(0, 0, 0)" font-family="Helvetica" pointer-events="none" clip-path="url(#mx-clip-504-160-61-40-0)" text-anchor="middle" font-size="15px"><text x="534" y="186">7</text></g><g fill="rgb(0, 0, 0)" font-family="Helvetica" pointer-events="none" font-size="15px"><text x="5.5" y="131">Element</text></g><g fill="rgb(0, 0, 0)" font-family="Helvetica" pointer-events="none" font-size="15px"><text x="5.5" y="186">Index</text></g><rect x="85" y="60" width="480" height="90" fill="rgb(255, 255, 255)" stroke="none" pointer-events="none"/><path d="M 85 60 L 565 60 L 565 150 L 85 150 L 85 60" fill="none" stroke="rgb(0, 0, 0)" stroke-width="2" stroke-linecap="square" stroke-miterlimit="10" pointer-events="none"/><path d="M 145 60 L 145 150" fill="none" stroke="rgb(0, 0, 0)" stroke-width="2" stroke-miterlimit="10" pointer-events="none"/><path d="M 205 60 L 205 150" fill="none" stroke="rgb(0, 0, 0)" stroke-width="2" stroke-miterlimit="10" pointer-events="none"/><path d="M 265 60 L 265 150" fill="none" stroke="rgb(0, 0, 0)" stroke-width="2" stroke-miterlimit="10" pointer-events="none"/><path d="M 325 60 L 325 150" fill="none" stroke="rgb(0, 0, 0)" stroke-width="2" stroke-miterlimit="10" pointer-events="none"/><path d="M 385 60 L 385 150" fill="none" stroke="rgb(0, 0, 0)" stroke-width="2" stroke-miterlimit="10" pointer-events="none"/><path d="M 445 60 L 445 150" fill="none" stroke="rgb(0, 0, 0)" stroke-width="2" stroke-miterlimit="10" pointer-events="none"/><path d="M 505 60 L 505 150" fill="none" stroke="rgb(0, 0, 0)" stroke-width="2" stroke-miterlimit="10" pointer-events="none"/><path d="M 85 60 M 565 60 M 565 150 M 85 150" fill="none" stroke="rgb(0, 0, 0)" stroke-linecap="square" stroke-miterlimit="10" pointer-events="none"/><path d="M 85 60 M 145 60 M 145 150 M 85 150" fill="none" stroke="rgb(0, 0, 0)" stroke-linecap="square" stroke-miterlimit="10" pointer-events="none"/><path d="M 145 60 M 205 60 M 205 150 M 145 150" fill="none" stroke="rgb(0, 0, 0)" stroke-linecap="square" stroke-miterlimit="10" pointer-events="none"/><path d="M 205 60 M 265 60 M 265 150 M 205 150" fill="none" stroke="rgb(0, 0, 0)" stroke-linecap="square" stroke-miterlimit="10" pointer-events="none"/><path d="M 265 60 M 325 60 M 325 150 M 265 150" fill="none" stroke="rgb(0, 0, 0)" stroke-linecap="square" stroke-miterlimit="10" pointer-events="none"/><path d="M 325 60 M 385 60 M 385 150 M 325 150" fill="none" stroke="rgb(0, 0, 0)" stroke-linecap="square" stroke-miterlimit="10" pointer-events="none"/><path d="M 385 60 M 445 60 M 445 150 M 385 150" fill="none" stroke="rgb(0, 0, 0)" stroke-linecap="square" stroke-miterlimit="10" pointer-events="none"/><path d="M 445 60 M 505 60 M 505 150 M 445 150" fill="none" stroke="rgb(0, 0, 0)" stroke-linecap="square" stroke-miterlimit="10" pointer-events="none"/><path d="M 505 60 M 565 60 M 565 150 M 505 150" fill="none" stroke="rgb(0, 0, 0)" stroke-linecap="square" stroke-miterlimit="10" pointer-events="none"/><g fill="rgb(0, 0, 0)" font-family="Helvetica" pointer-events="none" font-size="15px"><text x="5.5" y="91">Priority</text></g><g fill="rgb(0, 0, 0)" font-family="Helvetica" pointer-events="none" text-anchor="middle" font-size="15px"><text x="235.5" y="21">Rear</text></g><path d="M 236 30 L 236 44.6 L 235.92 48.87" fill="none" stroke="rgb(0, 0, 0)" stroke-width="2" stroke-miterlimit="10" pointer-events="none"/><path d="M 235.76 56.86 L 231.92 48.79 L 239.92 48.94 Z" fill="rgb(0, 0, 0)" stroke="rgb(0, 0, 0)" stroke-width="2" stroke-miterlimit="10" pointer-events="none"/><g fill="#000000" font-family="Helvetica" pointer-events="none" text-anchor="middle" font-size="15px"><text x="174.5" y="130">20</text></g><rect x="150" y="65" width="50" height="30" fill="#f8cecc" stroke="#b85450" pointer-events="none"/><g fill="rgb(0, 0, 0)" font-family="Helvetica" pointer-events="none" text-anchor="middle" font-size="15px"><text x="174.5" y="86">1</text></g><g fill="rgb(0, 0, 0)" font-family="Helvetica" pointer-events="none" text-anchor="middle" font-size="15px"><text x="234.5" y="130">30</text></g><rect x="210" y="65" width="50" height="30" fill="#ffe6cc" stroke="#d79b00" pointer-events="none"/><g fill="rgb(0, 0, 0)" font-family="Helvetica" pointer-events="none" text-anchor="middle" font-size="15px"><text x="234.5" y="86">2</text></g><g fill="rgb(0, 0, 0)" font-family="Helvetica" pointer-events="none" text-anchor="middle" font-size="15px"><text x="114.5" y="130">10</text></g><rect x="90" y="65" width="50" height="30" fill="#d5e8d4" stroke="#82b366" pointer-events="none"/><g fill="rgb(0, 0, 0)" font-family="Helvetica" pointer-events="none" text-anchor="middle" font-size="15px"><text x="114.5" y="86">3</text></g></g></svg>